<svg width="20" height="20" viewBox="0 0 20 20" fill="none" xmlns="http://www.w3.org/2000/svg">
<rect opacity="0.01" width="20" height="20" fill="white"/>
<path fill-rule="evenodd" clip-rule="evenodd" d="M10.7421 4.35667C10.5059 4.60942 10.5068 5.01826 10.7439 5.26992L14.5933 9.35411H3.93931L3.85707 9.36C3.56125 9.40277 3.33325 9.67297 3.33325 9.99991C3.33325 10.3566 3.60459 10.6457 3.93931 10.6457H14.592L10.7439 14.7298L10.6851 14.8021C10.5086 15.0545 10.5274 15.4133 10.7421 15.6431C10.9783 15.8958 11.3621 15.8966 11.5992 15.645L16.474 10.4719C16.5859 10.3605 16.6582 10.2044 16.6658 10.0303C16.6736 9.85447 16.6144 9.67584 16.488 9.54177L11.5992 4.35467L11.5311 4.29234C11.2934 4.10526 10.9568 4.12684 10.7421 4.35667Z" fill="#181818"/>
</svg>
