<svg width="24" height="25" viewBox="0 0 24 25" fill="none" xmlns="http://www.w3.org/2000/svg">
<g id="Icon/General/Plus">
<rect id="Rectangle 1" opacity="0.01" y="0.799988" width="24" height="24" fill="white"/>
<path id="Union" fill-rule="evenodd" clip-rule="evenodd" d="M13.3865 6.18753C13.3865 5.42121 12.7658 4.79999 12.0001 4.79999C11.2345 4.79999 10.6138 5.42121 10.6138 6.18753V11.4124H5.38636C4.62069 11.4124 4 12.0336 4 12.8C4 13.5663 4.62069 14.1875 5.38636 14.1875H10.6138V19.4125C10.6138 20.1788 11.2345 20.8 12.0001 20.8C12.7658 20.8 13.3865 20.1788 13.3865 19.4125V14.1875H18.6136C19.3793 14.1875 20 13.5663 20 12.8C20 12.0336 19.3793 11.4124 18.6136 11.4124H13.3865V6.18753Z" fill="#181818"/>
</g>
</svg>
