<svg width="22" height="22" viewBox="0 0 22 22" fill="none" xmlns="http://www.w3.org/2000/svg">
<rect opacity="0.01" x="0.333252" y="0.333344" width="21.3333" height="21.3333" fill="white"/>
<path fill-rule="evenodd" clip-rule="evenodd" d="M10.9735 1.88889C9.55006 1.88889 8.36727 1.93963 7.40777 2.13599C6.4362 2.33483 5.63548 2.69429 5.0339 3.35332C4.43941 4.00457 4.10864 4.87326 3.91905 5.95035C3.7298 7.02553 3.67039 8.37543 3.67039 10.048C3.67039 10.6935 3.66929 11.2995 3.66827 11.8679L3.66827 11.8681C3.66341 14.5567 3.66007 16.4051 3.78129 17.6106C3.85362 18.3299 3.97834 18.9404 4.25258 19.3788C4.40006 19.6147 4.59593 19.81 4.85026 19.9402C5.10003 20.068 5.36374 20.1111 5.61617 20.1111C6.19286 20.1111 6.75204 19.7939 7.20341 19.4803C7.6436 19.1744 8.10693 18.7785 8.54516 18.404L8.5465 18.4028L8.65032 18.3141C9.13468 17.9007 9.58962 17.519 10.0165 17.2388C10.4594 16.948 10.7707 16.8364 10.9735 16.8364C11.1763 16.8364 11.4876 16.948 11.9305 17.2388C12.3574 17.519 12.8123 17.9007 13.2967 18.3141L13.4005 18.4028L13.4024 18.4045C13.8405 18.7788 14.3036 19.1746 14.7436 19.4803C15.1949 19.7939 15.7541 20.1111 16.3309 20.1111C16.5832 20.1111 16.8469 20.068 17.0967 19.9402C17.351 19.81 17.5469 19.6147 17.6944 19.3788C17.9686 18.9404 18.0933 18.3299 18.1657 17.6106C18.2869 16.4058 18.2836 14.559 18.2788 11.8731L18.2788 11.8681C18.2777 11.2996 18.2766 10.6935 18.2766 10.048C18.2766 8.37543 18.2172 7.02553 18.0279 5.95035C17.8383 4.87326 17.5076 4.00457 16.9131 3.35332C16.3115 2.69429 15.5108 2.33483 14.5392 2.13599C13.5797 1.93963 12.3969 1.88889 10.9735 1.88889ZM5.00372 10.048C5.00372 8.38857 5.0642 7.13592 5.2322 6.1815C5.39986 5.22901 5.6637 4.64108 6.01866 4.25223C6.36652 3.87114 6.87008 3.607 7.6751 3.44225C8.49218 3.27504 9.55827 3.22222 10.9735 3.22222C12.3887 3.22222 13.4549 3.27504 14.2719 3.44225C15.0769 3.607 15.5805 3.87114 15.9284 4.25223C16.2833 4.64108 16.5471 5.22901 16.7148 6.1815C16.8828 7.13592 16.9433 8.38857 16.9433 10.048C16.9433 10.7092 16.9443 11.3251 16.9453 11.8986C16.9499 14.5882 16.9528 16.3458 16.839 17.4772C16.769 18.1745 16.6626 18.5142 16.5639 18.6719C16.525 18.7341 16.499 18.7483 16.4894 18.7532C16.4753 18.7604 16.4331 18.7778 16.3309 18.7778C16.1986 18.7778 15.9367 18.6857 15.5044 18.3853C15.1214 18.1191 14.707 17.7652 14.252 17.3766L14.2514 17.3761L14.1623 17.3001C13.6876 16.8948 13.1705 16.4579 12.6622 16.1242C12.1698 15.8009 11.5827 15.5031 10.9735 15.5031C10.3643 15.5031 9.77716 15.8009 9.28479 16.1242C8.7765 16.4579 8.25943 16.8948 7.78468 17.3001L7.69558 17.3762L7.69371 17.3778C7.23928 17.7659 6.82531 18.1194 6.44259 18.3853C6.01029 18.6857 5.74837 18.7778 5.61617 18.7778C5.51393 18.7778 5.47167 18.7604 5.45754 18.7532C5.44795 18.7483 5.42197 18.7341 5.38303 18.6719C5.28444 18.5142 5.17805 18.1745 5.10794 17.4772C4.99416 16.3458 4.99714 14.5884 5.0017 11.8991L5.0017 11.8987C5.00268 11.3252 5.00372 10.7092 5.00372 10.048ZM7.9266 7.86017C7.5584 7.86017 7.25993 8.15865 7.25993 8.52684C7.25993 8.89503 7.5584 9.19351 7.9266 9.19351H14.0199C14.3881 9.19351 14.6866 8.89503 14.6866 8.52684C14.6866 8.15865 14.3881 7.86017 14.0199 7.86017H7.9266Z" fill="#C1C1C1"/>
</svg>
